<?xml version="1.0" encoding="UTF-8"?>
<svg xmlns="http://www.w3.org/2000/svg" xmlns:xlink="http://www.w3.org/1999/xlink" width="640px" height="400px" viewBox="0 0 640 400" version="1.1">
<g id="surface1">
<path style=" stroke:none;fill-rule:nonzero;fill:rgb(24.705882%,23.921569%,33.72549%);fill-opacity:1;" d="M 610.210938 77.734375 L 29.789062 77.734375 C 13.34375 77.71875 0.0195312 65.765625 0 51.015625 L 0 26.722656 C 0.0195312 11.96875 13.34375 0.015625 29.789062 0 L 610.210938 0 C 626.65625 0.015625 639.980469 11.96875 640 26.722656 L 640 51.015625 C 639.980469 65.765625 626.65625 77.71875 610.210938 77.734375 Z M 29.789062 1.621094 C 14.339844 1.636719 1.824219 12.863281 1.804688 26.722656 L 1.804688 51.015625 C 1.824219 64.871094 14.339844 76.101562 29.789062 76.117188 L 610.210938 76.117188 C 625.660156 76.101562 638.175781 64.871094 638.195312 51.015625 L 638.195312 26.722656 C 638.175781 12.863281 625.660156 1.636719 610.210938 1.621094 Z M 29.789062 1.621094 "/>
<path style=" stroke:none;fill-rule:nonzero;fill:rgb(90.196078%,90.196078%,90.196078%);fill-opacity:1;" d="M 74.019531 23.484375 L 459.464844 23.484375 C 468.9375 23.484375 476.613281 30.371094 476.613281 38.867188 C 476.613281 47.363281 468.9375 54.253906 459.464844 54.253906 L 74.019531 54.253906 C 64.546875 54.253906 56.867188 47.363281 56.867188 38.867188 C 56.867188 30.371094 64.546875 23.484375 74.019531 23.484375 Z M 74.019531 23.484375 "/>
<path style=" stroke:none;fill-rule:nonzero;fill:rgb(42.352941%,38.823529%,100%);fill-opacity:1;" d="M 124.570312 158.417969 L 510.015625 158.417969 C 519.484375 158.417969 527.164062 165.308594 527.164062 173.804688 C 527.164062 182.300781 519.484375 189.191406 510.015625 189.191406 L 124.570312 189.191406 C 115.097656 189.191406 107.417969 182.300781 107.417969 173.804688 C 107.417969 165.308594 115.097656 158.417969 124.570312 158.417969 Z M 124.570312 158.417969 "/>
<path style=" stroke:none;fill-rule:nonzero;fill:rgb(90.196078%,90.196078%,90.196078%);fill-opacity:1;" d="M 124.570312 256.253906 L 510.015625 256.253906 C 519.484375 256.253906 527.164062 263.140625 527.164062 271.640625 C 527.164062 280.136719 519.484375 287.023438 510.015625 287.023438 L 124.570312 287.023438 C 115.097656 287.023438 107.417969 280.136719 107.417969 271.640625 C 107.417969 263.140625 115.097656 256.253906 124.570312 256.253906 Z M 124.570312 256.253906 "/>
<path style=" stroke:none;fill-rule:nonzero;fill:rgb(90.196078%,90.196078%,90.196078%);fill-opacity:1;" d="M 124.570312 354.085938 L 510.015625 354.085938 C 519.484375 354.085938 527.164062 360.976562 527.164062 369.472656 C 527.164062 377.96875 519.484375 384.859375 510.015625 384.859375 L 124.570312 384.859375 C 115.097656 384.859375 107.417969 377.96875 107.417969 369.472656 C 107.417969 360.976562 115.097656 354.085938 124.570312 354.085938 Z M 124.570312 354.085938 "/>
<path style=" stroke:none;fill-rule:nonzero;fill:rgb(42.352941%,38.823529%,100%);fill-opacity:1;" d="M 583.578125 55.488281 C 582.722656 56.585938 581.035156 56.851562 579.816406 56.082031 L 565.078125 46.886719 C 563.855469 46.117188 563.558594 44.605469 564.414062 43.511719 C 565.269531 42.414062 566.953125 42.148438 568.175781 42.914062 L 582.914062 52.113281 C 584.136719 52.882812 584.433594 54.390625 583.578125 55.488281 Z M 583.578125 55.488281 "/>
<path style=" stroke:none;fill-rule:nonzero;fill:rgb(42.352941%,38.823529%,100%);fill-opacity:1;" d="M 566.84375 45.039062 C 560.769531 52.820312 548.8125 54.710938 540.136719 49.261719 C 531.460938 43.8125 529.351562 33.085938 535.425781 25.304688 C 541.503906 17.519531 553.460938 15.628906 562.136719 21.078125 C 570.800781 26.535156 572.90625 37.253906 566.84375 45.039062 Z M 539.355469 27.769531 C 534.800781 33.609375 536.378906 41.652344 542.886719 45.738281 C 549.394531 49.828125 558.363281 48.40625 562.917969 42.570312 C 567.472656 36.734375 565.894531 28.6875 559.386719 24.601562 C 552.878906 20.523438 543.917969 21.941406 539.355469 27.769531 Z M 539.355469 27.769531 "/>
<path style=" stroke:none;fill-rule:nonzero;fill:rgb(24.705882%,23.921569%,33.72549%);fill-opacity:1;" d="M 593.511719 203.867188 L 46.488281 203.867188 C 45.988281 203.867188 45.585938 203.503906 45.585938 203.058594 C 45.585938 202.609375 45.988281 202.25 46.488281 202.25 L 593.511719 202.25 C 594.011719 202.25 594.414062 202.609375 594.414062 203.058594 C 594.414062 203.503906 594.011719 203.867188 593.511719 203.867188 Z M 593.511719 203.867188 "/>
<path style=" stroke:none;fill-rule:nonzero;fill:rgb(24.705882%,23.921569%,33.72549%);fill-opacity:1;" d="M 593.511719 301.742188 L 46.488281 301.742188 C 45.988281 301.742188 45.585938 301.378906 45.585938 300.933594 C 45.585938 300.484375 45.988281 300.121094 46.488281 300.121094 L 593.511719 300.121094 C 594.011719 300.121094 594.414062 300.484375 594.414062 300.933594 C 594.414062 301.378906 594.011719 301.742188 593.511719 301.742188 Z M 593.511719 301.742188 "/>
<path style=" stroke:none;fill-rule:nonzero;fill:rgb(24.705882%,23.921569%,33.72549%);fill-opacity:1;" d="M 593.511719 399.617188 L 46.488281 399.617188 C 45.988281 399.617188 45.585938 399.253906 45.585938 398.804688 C 45.585938 398.359375 45.988281 397.996094 46.488281 397.996094 L 593.511719 397.996094 C 594.011719 397.996094 594.414062 398.359375 594.414062 398.804688 C 594.414062 399.253906 594.011719 399.617188 593.511719 399.617188 Z M 593.511719 399.617188 "/>
</g>
</svg>
